<?xml version="1.0" encoding="UTF-8" standalone="no"?>
<!DOCTYPE svg PUBLIC "-//W3C//DTD SVG 1.1//EN"
"http://www.w3.org/Graphics/SVG/1.1/DTD/svg11.dtd">
<svg xmlns="http://www.w3.org/2000/svg"
     xmlns:xlink="http://www.w3.org/1999/xlink"
     version="1.1" id="svgMain" viewBox="0 0 2048 2048" >
  <path transform="rotate(180, 1024, 1024)" d="M206 1016l-54 -2l-28 -66l73 -22l48 58z M764 1210q36 -1 -16.5 70.5t-82.5 43.5l-121 -113z M412 1312q6 41 120.5 112.5t229.5 149.5l120 161l100 -227q357 -179 451 -434.5t49 -628.5q-18 -134 5 -246.5t60 -197.5l-1294 -1q-10 185 40 314t191 248q52 10 86 40t55 61 q0 1 65.5 2t144 30t144.5 101t69 216q0 17 -8.5 34.5t-10.5 38.5q-66 -237 -169 -300t-198 -61q-123 21 -195.5 -2.5t-110 -60.5t-48.5 -71q-10 -34 -10 -35l-226 126l120 86l-53 51l-127 -89l-12 310z M1434 71q-106 135 -88.5 321t28 377.5t-52 366t-328.5 287.5 q229 -171 263 -356.5t17 -365t-13 -342.5t174 -288z" /></svg>