<?xml version="1.0" encoding="UTF-8" standalone="no"?>
<!DOCTYPE svg PUBLIC "-//W3C//DTD SVG 1.1//EN"
"http://www.w3.org/Graphics/SVG/1.1/DTD/svg11.dtd">
<svg xmlns="http://www.w3.org/2000/svg"
     xmlns:xlink="http://www.w3.org/1999/xlink"
     version="1.1" id="svgMain" viewBox="0 0 2048 2048" >
  <path transform="rotate(180, 1024, 1024)" d="M463 338q4 -73 -16 -164l140 88z M915 0h-607q118 240 59 475.5t-211 468.5q-6 -2 -20 -2q-57 0 -96.5 39.5t-39.5 96.5q0 56 39.5 96t96.5 40q56 0 96.5 -40t40.5 -96q0 -21 -6 -39q-5 -17 -17 -35l205 -144l105 505q-68 33 -75 108q-5 45 30 94.5t91 55.5t100 -30 t50 -92q7 -73 -48 -118l207 -429l206 429q-56 45 -48 118q6 56 49.5 92t100.5 30q55 -6 90.5 -55.5t30.5 -94.5q-8 -75 -75 -108l105 -505l205 144q-13 18 -17 35q-6 24 -6 39q0 56 40 96t97 40q56 0 96 -40t40 -96q0 -57 -40 -96.5t-96 -39.5q-14 0 -20 2 q-153 -233 -212 -468.5t60 -475.5h-606z M915 469q114 0 231 -30t222 -70q2 41 11 93q-112 43 -230.5 70.5t-233.5 27.5q-117 0 -235.5 -27.5t-229.5 -70.5q8 -52 11 -93q104 40 221.5 70t232.5 30z M915 77h498q-14 30 -26 77h-472h-473q-12 -45 -25 -77h498z M1366 338 l-123 -76l139 -88q-19 86 -16 164z M769 288l146 -89l145 87l-145 89z" /></svg>