<?xml version="1.0" encoding="UTF-8" standalone="no"?>
<!DOCTYPE svg PUBLIC "-//W3C//DTD SVG 1.1//EN"
"http://www.w3.org/Graphics/SVG/1.1/DTD/svg11.dtd">
<svg xmlns="http://www.w3.org/2000/svg"
     xmlns:xlink="http://www.w3.org/1999/xlink"
     version="1.1" id="svgMain" viewBox="0 0 2048 2048" >
  <path transform="rotate(180, 1024, 1024)" d="M877 77h509l-13 77h-496h-496l-13 -77h509z M877 1037q-29 67 -65 116q34 49 65 67q29 -16 65 -67q-37 -49 -65 -116z M776 564q-161 -11 -316 -61q-129 113 -208.5 222.5t-79.5 210.5q0 93 76.5 165.5t154.5 72.5q70 0 140 -65t106 -136q33 -57 79.5 -182.5t47.5 -226.5z M411 338l-27 -162l151 86z M877 1283q-35 0 -68 -35.5t-74 -90.5q-25 30 -52 57q97 145 194 145q98 0 194 -145q-27 -27 -52 -57q-42 55 -75 90.5t-67 35.5z M877 475q-1 131 -43.5 278.5t-87.5 236.5q-9 15 -15.5 28t-12.5 24q-26 41 -50 72q-53 66 -125 109.5t-139 43.5 q-107 0 -216.5 -97t-109.5 -239q0 -125 103 -265t259 -271q209 80 437 80z M877 0h-600l64 380q-174 149 -257 292t-83 266q-1 165 130 285.5t278 120.5q81 0 165 -49t149 -125q63 -76 102 -170t52 -157q12 63 51 157t103 170t148 125t166 49q145 0 276.5 -120.5 t131.5 -285.5q-2 -266 -340 -558l64 -380h-600z M978 564q0 101 46.5 226.5t79.5 182.5q36 71 105.5 136t141.5 65q77 0 153.5 -72.5t77.5 -165.5q0 -101 -80 -210.5t-208 -222.5q-158 50 -316 61z M1343 338l-124 -76l151 -86z M877 475q227 0 437 -80q155 131 258.5 271 t103.5 265q-1 142 -110.5 239t-215.5 97q-69 0 -141 -43.5t-124 -109.5q-25 -32 -49 -72q-9 -14 -28 -52q-45 -89 -88 -236.5t-43 -278.5z M732 309l145 -89l145 87l-145 90z M828 1610v98h98v-98h111v-99h-111v-160q-50 18 -98 0v160h-111v99h111z" /></svg>