<?xml version="1.0" encoding="UTF-8" standalone="no"?>
<!DOCTYPE svg PUBLIC "-//W3C//DTD SVG 1.1//EN"
"http://www.w3.org/Graphics/SVG/1.1/DTD/svg11.dtd">
<svg xmlns="http://www.w3.org/2000/svg"
     xmlns:xlink="http://www.w3.org/1999/xlink"
     version="1.1" id="svgMain" viewBox="0 0 2048 2048" >
  <path transform="rotate(180, 1024, 1024)" d="M668 356h-398l6 77h392h391l6 -77h-397z M668 1045h-346l5 77h341h340l6 -77h-346z M668 0h-668l30 275l166 123l51 686l-154 112l-18 356h301v-154h143v154h149h148v-154h144v154h300l-18 -356l-154 -112l52 -686l165 -123l31 -275h-668z M668 77h580l-16 155l-167 124 l-57 766l159 114l13 239h-144v-154h-296v154h-72h-72v-154h-297v154h-143l13 -239l158 -114l-57 -766l-167 -124l-16 -155h581z" /></svg>