<?xml version="1.0" encoding="UTF-8" standalone="no"?>
<!DOCTYPE svg PUBLIC "-//W3C//DTD SVG 1.1//EN"
"http://www.w3.org/Graphics/SVG/1.1/DTD/svg11.dtd">
<svg xmlns="http://www.w3.org/2000/svg"
     xmlns:xlink="http://www.w3.org/1999/xlink"
     version="1.1" id="svgMain" viewBox="0 0 2048 2048" >
  <path transform="rotate(180, 1024, 1024)" d="M915 77h498q-55 134 -45 292q-105 40 -222 70t-231 30q-115 0 -232.5 -30t-221.5 -70q10 -154 -44 -292h498z M915 546q115 0 232 -27.5t230 -70.5v0v0q33 206 173 443l-229 -162l-128 626l-278 -578l-279 578l-127 -626l-230 162q139 -237 173 -443v0v0q112 43 229 70.5 t234 27.5z M915 0h-607q118 240 59 475.5t-211 468.5q-6 -2 -20 -2q-57 0 -96.5 39.5t-39.5 96.5q0 56 39.5 96t96.5 40q56 0 96.5 -40t40.5 -96q0 -21 -6 -39q-5 -17 -17 -35l205 -144l105 505q-68 33 -75 108q-5 45 30 94.5t91 55.5t100 -30t50 -92q7 -73 -48 -118 l207 -429l206 429q-56 45 -48 118q6 56 49.5 92t100.5 30q55 -6 90.5 -55.5t30.5 -94.5q-8 -75 -75 -108l105 -505l205 144q-13 18 -17 35q-6 24 -6 39q0 56 40 96t97 40q56 0 96 -40t40 -96q0 -57 -40 -96.5t-96 -39.5q-14 0 -20 2q-153 -233 -212 -468.5t60 -475.5h-606z M136 1143q-65 0 -65 -65q0 -64 65 -64t65 64q0 65 -65 65z M621 1553q-65 0 -65 -65q0 -64 65 -64q64 0 64 64q0 65 -64 65z M463 338l124 -76l-140 -88q20 91 16 164z M1693 1143q-65 0 -65 -65q0 -64 65 -64t65 64q0 65 -65 65z M1209 1553q-65 0 -65 -65q0 -64 65 -64 q64 0 64 64q0 65 -64 65z M1366 338q-3 -78 16 -164l-139 88z M769 288l146 87l145 -89l-145 -87z" /></svg>