<?xml version="1.0" encoding="UTF-8" standalone="no"?>
<!DOCTYPE svg PUBLIC "-//W3C//DTD SVG 1.1//EN"
"http://www.w3.org/Graphics/SVG/1.1/DTD/svg11.dtd">
<svg xmlns="http://www.w3.org/2000/svg"
     xmlns:xlink="http://www.w3.org/1999/xlink"
     version="1.1" id="svgMain" viewBox="0 0 2048 2048" >
  <path transform="rotate(180, 1024, 1024)" d="M729 783q35 -20 56 -44q21 15 38.5 13.5t35.5 1.5q81 12 133.5 89t54.5 172l-20 69q-59 -250 -196 -267q-21 -3 -46.5 -5.5t-55.5 -28.5z M460 1250l-48 62q6 41 120.5 112.5t229.5 149.5l120 161l100 -227q357 -179 451 -434.5t49 -628.5q-18 -133 5 -246t60 -199h-1294 q-10 186 40 315t191 247q81 17 120 73.5t58 88.5q-123 22 -195.5 -2t-110 -61t-48.5 -71q-10 -34 -10 -35l-226 126l120 86l-53 52l-127 -89l-12 309l412 273q12 -18 23.5 -31.5t24.5 -30.5l-381 -251l4 -130l66 43l144 -150l-81 -69l49 -29l40 47q40 47 113 77 q56 19 172 28.5t199 -77.5q-58 -66 -94.5 -138.5t-158.5 -106.5q-96 -83 -152 -184t-51 -233h1063q-36 138 -33.5 244t12.5 207.5t10 213.5t-42 264q-54 130 -140.5 243t-273.5 196l-61 139l-51 -73q-102 -64 -216 -136t-137 -125z M764 1219l-220 1l121 105q31 27 83 -40 t16 -66z M206 1016l39 -32l-48 -57l-59 26l33 58z" /></svg>