<?xml version="1.0" encoding="UTF-8" standalone="no"?>
<!DOCTYPE svg PUBLIC "-//W3C//DTD SVG 1.1//EN"
"http://www.w3.org/Graphics/SVG/1.1/DTD/svg11.dtd">
<svg xmlns="http://www.w3.org/2000/svg"
     xmlns:xlink="http://www.w3.org/1999/xlink"
     version="1.1" id="svgMain" viewBox="0 0 2048 2048" >
  <path transform="rotate(180, 1024, 1024)" d="M853 1549q69 0 67 69q1 58 -67 58q-70 0 -66 -58q-5 -69 66 -69z M853 295q0 -118 -105 -206.5t-232 -88.5h-516q0 121 67.5 186t148.5 65h260q54 0 92.5 7.5t73.5 62.5q2 3 4.5 7.5t5.5 8.5h80q-5 -15 -4 -13q-47 -109 -113.5 -129.5t-151.5 -20.5h-251q-54 0 -89 -41.5 t-35 -55.5h441q69 0 165.5 68.5t97.5 191.5h-355q70 122 75 240q-120 123 -170 232t-5 233q34 99 122.5 196.5t324.5 257.5q-18 11 -48 37t-30 83q0 60 43.5 99.5t103.5 39.5t103.5 -39.5t43.5 -99.5q0 -57 -30 -83t-47 -37q235 -160 323.5 -257.5t122.5 -196.5 q44 -124 -5.5 -233t-168.5 -232q4 -117 74 -240h-354q0 -123 96.5 -191.5t165.5 -68.5h442q0 14 -35.5 55.5t-89.5 41.5h-250q-87 0 -153 20.5t-113 129.5q4 -8 -3 13h80q8 -14 10 -16q34 -55 72.5 -62.5t92.5 -7.5h261q79 0 147.5 -65t68.5 -186h-516q-128 0 -233 88.5 t-105 206.5z M853 414h295q-30 90 -30 160q-123 41 -265 40q-143 1 -265 -40q0 -68 -29 -160h294z M853 692q169 1 297 -44q197 189 148 361q-61 199 -445 448q-384 -249 -444 -448q-51 -173 148 -361q127 45 296 44z M804 1068v109h99v-109h99v-93h-99v-172h-99v172h-99v93h99 z" /></svg>