<?xml version="1.0" encoding="UTF-8" standalone="no"?>
<!DOCTYPE svg PUBLIC "-//W3C//DTD SVG 1.1//EN"
"http://www.w3.org/Graphics/SVG/1.1/DTD/svg11.dtd">
<svg xmlns="http://www.w3.org/2000/svg"
     xmlns:xlink="http://www.w3.org/1999/xlink"
     version="1.1" id="svgMain" viewBox="0 0 2048 2048" >
  <path transform="rotate(180, 1024, 1024)" d="M828 1610v98h98v-98h111v-99h-111v-160q-50 18 -98 0v160h-111v99h111z M877 1283q-35 0 -68 -35.5t-74 -90.5q-25 30 -52 57q97 145 194 145q98 0 194 -145q-27 -27 -52 -57q-42 55 -75 90.5t-67 35.5z M411 338l-27 -162l151 86z M839 552q-2 153 -38.5 286t-84.5 202 q-46 91 -136 159t-176 68q-107 0 -216.5 -97t-109.5 -239q0 -113 90.5 -246t210.5 -232q219 92 460 99z M877 0h-600l64 380q-174 149 -257 292t-83 266q-1 165 130 285.5t278 120.5q81 0 165 -49t149 -125q63 -76 102 -170t52 -157q12 63 51 157t103 170t148 125t166 49 q145 0 276.5 -120.5t131.5 -285.5q-2 -266 -340 -558l64 -380h-600z M877 77h509l-52 311q-225 87 -457 87q-233 0 -458 -87l-52 -311h510z M1343 338l-124 -76l151 -86z M915 552q239 -7 459 -99q120 99 211 232t91 246q-1 142 -110.5 239t-215.5 97q-87 0 -177 -68t-135 -159 q-48 -69 -85.5 -202t-37.5 -286z M732 309l147 88l143 -90l-147 -87z" /></svg>